<?xml version="1.0" encoding="UTF-8"?> <!-- Generator: Adobe Illustrator 21.0.0, SVG Export Plug-In --> <svg xmlns="http://www.w3.org/2000/svg" xmlns:xlink="http://www.w3.org/1999/xlink" xmlns:a="http://ns.adobe.com/AdobeSVGViewerExtensions/3.0/" x="0px" y="0px" width="212.339px" height="86.752px" viewBox="0 0 212.339 86.752" style="enable-background:new 0 0 212.339 86.752;" xml:space="preserve"> <style type="text/css"> .st0{fill:#FFC82D;} .st1{fill:#FFFFFF;} </style> <defs> </defs> <path class="st0" d="M5.377,43.707c0-8.783,4.043-20.25,11.328-25.794v-5.896C6.061,18.686,0,31.083,0,43.707 c0,3.412,1.118,37.251,43.014,37.251v-4.982C5.752,76.001,5.377,46.658,5.377,43.707z"></path> <g> <path class="st1" d="M59.665,25.717H48.917l0.038-23.031c0,0-7.396,0-10.783,0c0,10.427-0.002,31.475-0.002,31.475h27.636 C61.967,31.475,60.537,28.788,59.665,25.717z"></path> <polygon class="st1" points="106.366,34.162 117.113,34.162 117.113,22.647 130.164,2.687 117.881,2.687 111.74,12.667 105.599,2.687 92.932,2.687 106.366,22.647 "></polygon> <path class="st1" d="M166.245,18.424c0-5.758-1.535-15.738-15.353-15.738c-14.586,0-19.192,0-19.192,0v31.475c0,0,3.838,0,19.192,0 C164.71,34.162,166.245,24.182,166.245,18.424z M142.447,26.485V10.616c0,0,1.536,0,6.142,0s6.142,3.969,6.142,7.808 s-1.536,8.061-6.142,8.061S142.447,26.485,142.447,26.485z"></path> <path class="st1" d="M78.59,34.695c8.839,0,16.004-7.165,16.004-16.004S87.429,2.687,78.59,2.687 c-8.838,0-16.004,7.165-16.004,16.004S69.751,34.695,78.59,34.695z M78.59,11.352c4.054,0,7.339,3.286,7.339,7.339 c0,4.053-3.286,7.339-7.339,7.339c-4.053,0-7.339-3.286-7.339-7.339C71.25,14.638,74.537,11.352,78.59,11.352z"></path> <polygon class="st1" points="84.361,52.006 84.409,68.965 95.074,68.965 95.026,37.442 83.379,37.442 70.471,52.037 57.545,37.307 31.666,37.307 31.666,0 14.755,0 14.755,9.212 20.896,9.212 20.896,46.061 45.846,46.061 45.846,86.752 56.594,86.752 56.594,52.329 70.259,66.812 "></polygon> <path class="st1" d="M174.474,37.442h-10.739h-0.008l-13.034,31.475h10.748l2.726-6.582h9.876l2.726,6.582h10.748l-13.033-31.475 H174.474z M167.098,55.255l2.007-4.846l2.006,4.846H167.098z"></path> <polygon class="st1" points="158.362,37.442 99.791,37.442 99.791,68.917 125.099,68.917 125.099,60.667 110.539,60.667 110.539,57.304 121.543,57.304 121.543,49.054 110.539,49.054 110.539,45.692 134.805,45.692 134.805,68.917 145.553,68.917 145.553,45.692 155.008,45.692 "></polygon> <polygon class="st1" points="212.339,60.628 201.094,60.628 201.094,37.403 190.347,37.403 190.347,68.878 212.339,68.878 "></polygon> </g> <g> <polygon class="st0" points="64.164,75.829 64.164,76.681 65.48,76.991 65.48,85.358 64.164,85.668 64.164,86.597 68.657,86.597 68.657,85.668 67.107,85.358 67.107,81.717 70.671,81.717 70.671,80.477 67.107,80.477 67.107,76.991 70.438,76.991 70.825,78.308 71.833,78.308 71.833,75.752 67.107,75.752 "></polygon> <path class="st0" d="M82.366,75.752l-1.549,0.077l-3.532,9.543l-1.27,0.295v0.93h4.26v-0.93l-1.456-0.295l0.604-1.72h4.028 l0.588,1.72l-1.44,0.295v0.93h4.492v-0.93l-1.286-0.295L82.366,75.752z M79.841,82.414l1.627-4.663l1.565,4.663H79.841z"></path> <path class="st0" d="M98.167,80.973c1.301-0.325,2.014-1.115,2.014-2.51c0-1.859-1.394-2.711-3.331-2.711h-1.782l-2.866,0.077 v0.852l1.317,0.31v8.366l-1.317,0.31v0.93h4.416c2.556,0,3.951-0.93,3.951-3.099C100.569,82.259,99.794,81.345,98.167,80.973z M95.068,76.991h1.704c1.007,0,1.782,0.542,1.782,1.627c0,1.239-0.93,1.782-2.324,1.782h-1.162V76.991z M96.695,85.358h-1.627 v-3.796h1.162c1.704,0,2.711,0.465,2.711,2.014C98.942,84.738,98.167,85.358,96.695,85.358z"></path> <path class="st0" d="M113.659,82.956c-0.403-0.775-0.682-1.177-0.93-1.394c1.332-0.496,2.014-1.518,2.014-3.021 c0-1.735-1.302-2.789-3.487-2.789h-1.704l-2.943,0.077v0.852l1.316,0.31v8.366l-1.316,0.31v0.93h4.26v-0.93l-1.317-0.31v-3.486 h0.697c1.023,0,1.363,0.31,2.092,1.859l1.317,2.866h2.324v-0.93l-1.1-0.248L113.659,82.956z M110.715,80.71h-1.162v-3.718h1.627 c1.131,0,1.937,0.744,1.937,1.782C113.117,79.997,112.233,80.71,110.715,80.71z"></path> <polygon class="st0" points="121.404,76.681 122.721,76.991 122.721,85.358 121.404,85.668 121.404,86.597 125.665,86.597 125.665,85.668 124.348,85.358 124.348,76.991 125.665,76.681 125.665,75.752 121.404,75.829 "></polygon> <path class="st0" d="M137.05,85.358c-1.936,0-3.331-1.239-3.331-4.028c0-2.866,1.162-4.415,3.254-4.415 c1.162,0,1.983,0.31,1.983,0.31l0.418,1.782h1.162l0.077-2.634c0,0-1.782-0.775-3.487-0.775c-3.175,0-5.19,2.247-5.19,5.81 c0,3.486,1.859,5.345,4.958,5.345c2.324,0,3.873-1.627,3.873-1.627l-0.62-1.007C140.149,84.118,138.677,85.358,137.05,85.358z"></path> <path class="st0" d="M151.768,75.752l-1.549,0.077l-3.532,9.543l-1.271,0.295v0.93h4.26v-0.93l-1.456-0.295l0.604-1.72h4.028 l0.589,1.72L152,85.668v0.93h4.492v-0.93l-1.286-0.295L151.768,75.752z M149.242,82.414l1.627-4.663l1.565,4.663H149.242z"></path> <polygon class="st0" points="160.752,78.541 161.759,78.541 162.146,76.991 164.16,76.991 164.16,85.358 162.611,85.668 162.611,86.597 167.336,86.597 167.336,85.668 165.787,85.358 165.787,76.991 167.801,76.991 168.188,78.541 169.195,78.541 169.195,75.752 160.752,75.752 "></polygon> <polygon class="st0" points="174.694,76.681 176.011,76.991 176.011,85.358 174.694,85.668 174.694,86.597 178.955,86.597 178.955,85.668 177.638,85.358 177.638,76.991 178.955,76.681 178.955,75.752 174.694,75.829 "></polygon> <path class="st0" d="M190.263,75.597c-3.098,0-5.035,2.247-5.035,5.655c0,3.564,1.704,5.5,4.725,5.5 c3.022,0,5.113-2.324,5.113-5.732C195.067,77.688,193.285,75.597,190.263,75.597z M190.031,85.435c-2.014,0-3.021-1.472-3.021-4.26 c0-2.944,1.162-4.26,3.176-4.26c2.015,0,3.099,1.394,3.099,4.183C193.285,84.041,192.045,85.435,190.031,85.435z"></path> <polygon class="st0" points="208.311,75.829 208.311,76.681 209.628,76.991 209.628,84.412 204.516,75.752 201.262,75.829 201.262,76.681 202.579,76.991 202.579,85.358 201.262,85.668 201.262,86.597 205.445,86.597 205.445,85.668 203.973,85.358 203.973,78.06 209.086,86.597 211.023,86.597 211.023,76.991 212.339,76.681 212.339,75.752 "></polygon> </g> </svg> 